<svg id="Layer_1" width="180" data-name="Layer 1" xmlns="http://www.w3.org/2000/svg" viewBox="0 0 147.614 24.399"><defs><style>.cls-1{fill:#fff;}.cls-2{fill:#0096ff;}</style></defs><path class="cls-1" d="M9.963,11.615H18.1l.054,3.669q0,4.008-1.509,5.166T9.909,21.608q-4.794,0-6.351-1.544T2,13.768Q2,7.7,2.624,6.1A4.453,4.453,0,0,1,4.966,3.478,14.8,14.8,0,0,1,10.3,2.8q4.929,0,6.364,1.049T18.1,8.5H14.553q-.1-1.815-.792-2.254a8.247,8.247,0,0,0-3.5-.441q-3.046,0-3.866.759t-.819,3.56l-.014,1.856.027,2.369q0,2.748.813,3.5t3.764.752q2.87,0,3.649-.636t.779-3.006l.013-.758H9.963Z" transform="translate(-2.001 -2.801)"/><path class="cls-1" d="M23.746,12.251H20.578q0-2.328,1.083-3.114t4.293-.785q3.492,0,4.725.961t1.232,3.67v8.462h-3.1l.149-1.774-.081-.013q-.894,1.937-4.129,1.936-4.7,0-4.7-3.994,0-4.035,4.807-4.035,3.209,0,3.9,1.475h.053v-2.1a2.783,2.783,0,0,0-.528-2.01,3.32,3.32,0,0,0-2.166-.5Q23.746,10.437,23.746,12.251Zm2.072,3.4q-2.627,0-2.627,1.814a1.963,1.963,0,0,0,.542,1.652,4.336,4.336,0,0,0,2.274.393q2.83,0,2.83-1.909Q28.837,15.65,25.818,15.65Z" transform="translate(-2.001 -2.801)"/><path class="cls-1" d="M38.1,2.963V21.445H35V2.963Z" transform="translate(-2.001 -2.801)"/><path class="cls-1" d="M44.368,12.251H41.2q0-2.328,1.083-3.114t4.292-.785q3.493,0,4.726.961t1.232,3.67v8.462h-3.1l.149-1.774-.081-.013q-.894,1.937-4.13,1.936-4.7,0-4.7-3.994,0-4.035,4.806-4.035,3.21,0,3.9,1.475h.054v-2.1a2.788,2.788,0,0,0-.528-2.01,3.32,3.32,0,0,0-2.166-.5Q44.368,10.437,44.368,12.251Zm2.072,3.4q-2.626,0-2.627,1.814a1.959,1.959,0,0,0,.542,1.652,4.336,4.336,0,0,0,2.274.393q2.831,0,2.83-1.909Q49.459,15.65,46.44,15.65Z" transform="translate(-2.001 -2.801)"/><path class="cls-1" d="M66.208,8.5l-3.764,6.093,4.184,6.851h-3.71l-2.6-4.7-2.532,4.7h-3.8l4.239-6.81L54.483,8.5h3.7l2.139,4.1,2.194-4.1Z" transform="translate(-2.001 -2.801)"/><path class="cls-1" d="M78.72,8.5l-3.4,13.756a8.286,8.286,0,0,1-1.781,3.934A4.829,4.829,0,0,1,70.135,27.2c-.352,0-.717-.018-1.1-.054V24.857c.271.018.5.028.677.028q1.977,0,2.5-3.44H70.636L66.4,8.5h3.331l1.625,5.483.812,2.75c.045.179.172.64.379,1.38l.393,1.368h.068l.284-1.368c.144-.7.239-1.164.284-1.38l.637-2.75L75.456,8.5Z" transform="translate(-2.001 -2.801)"/><path class="cls-2" d="M93.926,8.352H90.5c-.018-.171-.026-.3-.026-.379q-.123-1.557-.691-1.957a5.563,5.563,0,0,0-2.681-.4,7.384,7.384,0,0,0-3.257.461,2.091,2.091,0,0,0-.764,1.936q0,1.748.622,2.1a14.333,14.333,0,0,0,4.117.542q4.129.23,5.341,1.177t1.212,3.941q0,3.684-1.422,4.759t-6.269,1.077q-4.359,0-5.789-1.056t-1.428-4.279l-.013-.677h3.412l.014.393q0,1.935.677,2.369a9.025,9.025,0,0,0,3.695.433,5.684,5.684,0,0,0,3.007-.5q.649-.5.65-2.315a2.387,2.387,0,0,0-.494-1.781,3.828,3.828,0,0,0-2.133-.534l-1.936-.122q-4.388-.258-5.606-1.219t-1.219-4.13q0-3.235,1.47-4.312T86.857,2.8q4.172,0,5.619.988t1.45,3.858Z" transform="translate(-2.001 -2.801)"/><path class="cls-2" d="M96.715,8.5h3.154l-.122,1.922.068.014q1.123-2.1,4.184-2.1,2.829,0,3.893,1.4t1.062,5.112q0,3.871-1.056,5.308t-3.912,1.435q-3.047,0-3.982-2.031H99.95V27H96.715Zm6.106,2.288q-1.774,0-2.316.8a6.878,6.878,0,0,0-.541,3.385,6.433,6.433,0,0,0,.582,3.344,2.75,2.75,0,0,0,2.369.827q1.817,0,2.357-.786a6.79,6.79,0,0,0,.541-3.372,6.829,6.829,0,0,0-.548-3.425Q104.718,10.789,102.821,10.789Z" transform="translate(-2.001 -2.801)"/><path class="cls-2" d="M114.763,12.251H111.6q0-2.328,1.083-3.114t4.292-.785q3.494,0,4.725.961t1.232,3.67v8.462h-3.1l.149-1.774-.082-.013q-.892,1.937-4.129,1.936-4.7,0-4.7-3.994,0-4.035,4.807-4.035,3.21,0,3.9,1.475h.054v-2.1a2.788,2.788,0,0,0-.528-2.01,3.324,3.324,0,0,0-2.167-.5Q114.762,10.437,114.763,12.251Zm2.072,3.4q-2.628,0-2.627,1.814a1.963,1.963,0,0,0,.542,1.652,4.333,4.333,0,0,0,2.274.393q2.831,0,2.83-1.909Q119.854,15.65,116.835,15.65Z" transform="translate(-2.001 -2.801)"/><path class="cls-2" d="M126.1,8.5h3.1l-.19,1.815.068.013A3.708,3.708,0,0,1,132.569,8.3q3.411,0,3.411,4.306v.906h-2.924c.036-.351.054-.582.054-.69q0-2.072-1.611-2.071-2.3,0-2.3,3.073v7.623h-3.1Z" transform="translate(-2.001 -2.801)"/><path class="cls-2" d="M140.8,2.963V13.538h.8L145.093,8.5h3.6l-4.508,6.093,5.429,6.851H145.77L141.558,15.7H140.8v5.741h-3.1V2.963Z" transform="translate(-2.001 -2.801)"/></svg>